# xmcd CD database file
#
# Track frame offsets:
#	150
#	16580
#	30816
#	44458
#	58745
#	74077
#	88789
#	103174
#	116308
#	130749
#	144960
#	163169
#
# Disc length: 2352 seconds
#
# Revision: 0
# Processed by: cddbd v1.5.2PL0 Copyright (c) Steve Scherf et al.
# Submitted via: CDex 1.70beta2
#
DISCID=9b092e0c
DTITLE=Gavin, Gail - Cdn. - OVM - Gavan Sings Griff
DYEAR=1900
DGENRE=Country
TTITLE0=I Can't Believe This Feeling
TTITLE1=Country Rock'n'Roll
TTITLE2=Fightin' Fire
TTITLE3=I'm Not A Very Good Liar
TTITLE4=You Can't Kiss Me Like That
TTITLE5=If You've Never Seen Love Before
TTITLE6=Une Vague Bleue
TTITLE7=Beyond The Sea
TTITLE8=I Pretend
TTITLE9=No Man's Land
TTITLE10=Back In the High Life
TTITLE11=Me and His Mercedes
EXTD=
EXTT0=
EXTT1=
EXTT2=
EXTT3=
EXTT4=
EXTT5=
EXTT6=
EXTT7=
EXTT8=
EXTT9=
EXTT10=
EXTT11=
PLAYORDER=
